<?xml version="1.0" encoding="utf-8"?>
<!-- Generator: Adobe Illustrator 20.1.0, SVG Export Plug-In . SVG Version: 6.00 Build 0)  -->
<svg id="email" version="1.1" id="Layer_1" xmlns="http://www.w3.org/2000/svg" xmlns:xlink="http://www.w3.org/1999/xlink" x="0px" y="0px"
	 viewBox="0 0 512 512" style="enable-background:new 0 0 512 512;" xml:space="preserve">
<style type="text/css">
	.st0{fill:none;stroke:#630A10;stroke-width:16;stroke-miterlimit:10;}
</style>
<g>
	<g>
		<path class="st0" d="M500.9,134c0-13.6-11.3-24.7-25.1-24.7c0,0,0,0,0,0l-440,0.6c-6.7,0-13,2.6-17.8,7.3
			c-4.7,4.7-7.3,10.9-7.3,17.5L11.1,378c0,6.6,2.6,12.8,7.4,17.5c4.7,4.7,11,7.2,17.7,7.2c0,0,0,0,0,0l440-0.6
			c13.9,0,25.1-11.1,25.1-24.8L500.9,134z M448.2,134L256,265.6l-192.6-131L448.2,134z M337.3,290.4l114,87L60.4,378l114.7-87.6
			c5.5-4.2,6.5-12,2.2-17.4c-4.3-5.4-12.1-6.4-17.6-2.2L36.2,365.2l-0.3-219.3l213,144.9c2.2,1.5,4.6,2.2,7.1,2.2
			c2.5,0,5-0.7,7.2-2.2l212.6-145.5l0.3,219.9l-123.5-94.3c-5.5-4.2-13.4-3.2-17.6,2.2C330.8,278.4,331.8,286.2,337.3,290.4z"/>
	</g>
</g>
</svg>
