<?xml version="1.0" encoding="utf-8"?>
<!-- Generator: Adobe Illustrator 20.1.0, SVG Export Plug-In . SVG Version: 6.00 Build 0)  -->
<svg version="1.1" id="Capa_1" xmlns="http://www.w3.org/2000/svg" xmlns:xlink="http://www.w3.org/1999/xlink" x="0px" y="0px"
	 viewBox="0 0 512 512" style="enable-background:new 0 0 512 512;" xml:space="preserve">
<style type="text/css">
	.st0{fill:none;stroke:#630A10;stroke-width:15;stroke-miterlimit:10;}
</style>
<g>
	<path class="st0" d="M462.9,135.9c-21.4-38.5-50.4-69-87-91.5c-36.6-22.5-76.6-33.7-120-33.7c-43.4,0-83.4,11.2-120,33.7
		c-36.6,22.5-65.6,53-87,91.5C27.7,174.4,17,216.5,17,262.1C17,317,32.2,366.2,62.6,410c30.4,43.8,69.7,74.1,117.8,90.9
		c5.6,1.1,9.7,0.3,12.4-2.3c2.7-2.6,4-5.9,4-9.8c0-0.7-0.1-6.5-0.2-17.7c-0.1-11.1-0.2-20.9-0.2-29.1l-7.2,1.3
		c-4.6,0.9-10.3,1.3-17.3,1.1c-6.9-0.1-14.2-0.9-21.6-2.3c-7.5-1.4-14.4-4.7-20.9-9.8c-6.4-5.1-11-11.8-13.7-20.1l-3.1-7.5
		c-2.1-5-5.3-10.6-9.8-16.7c-4.5-6.1-9-10.3-13.5-12.4l-2.2-1.6c-1.5-1.1-2.8-2.4-4-3.9c-1.2-1.5-2.2-3.1-2.8-4.6
		c-0.6-1.5-0.1-2.8,1.6-3.8c1.7-1,4.7-1.5,9-1.5l6.2,1c4.1,0.9,9.3,3.5,15.4,7.9c6.1,4.4,11.1,10,15.1,17c4.8,9,10.5,15.8,17.3,20.5
		c6.7,4.7,13.5,7,20.4,7s12.8-0.5,17.7-1.6c5-1.1,9.6-2.7,14-4.9c1.9-14.6,7-25.9,15.2-33.7c-11.8-1.3-22.5-3.3-31.9-5.9
		c-9.4-2.6-19.2-6.9-29.2-12.8c-10.1-5.9-18.4-13.2-25.1-21.9c-6.6-8.7-12.1-20.2-16.3-34.4c-4.3-14.2-6.4-30.6-6.4-49.1
		c0-26.4,8.2-48.9,24.6-67.5c-7.7-19.9-7-42.1,2.2-66.8c6-2,14.9-0.5,26.8,4.4c11.8,4.9,20.5,9.1,26,12.6c5.5,3.5,9.9,6.4,13.2,8.8
		c19.3-5.7,39.2-8.5,59.7-8.5s40.5,2.8,59.8,8.5l11.8-7.9c8.1-5.2,17.6-10,28.6-14.4c11-4.4,19.4-5.6,25.2-3.6
		c9.3,24.7,10.2,46.9,2.5,66.8c16.4,18.6,24.6,41.1,24.6,67.5c0,18.6-2.1,35-6.4,49.3c-4.3,14.3-9.7,25.8-16.5,34.4
		c-6.7,8.6-15.2,15.9-25.2,21.8c-10.1,5.9-19.8,10.2-29.3,12.8c-9.4,2.6-20.1,4.6-31.9,5.9c10.8,9.8,16.2,25.3,16.2,46.5v69.1
		c0,3.9,1.3,7.2,3.9,9.8c2.6,2.6,6.7,3.4,12.3,2.3c48.1-16.8,87.4-47.1,117.8-90.9c30.4-43.8,45.6-93.1,45.6-147.9
		C495,216.5,484.3,174.4,462.9,135.9z"/>
</g>
</svg>
