<?xml version="1.0" encoding="utf-8"?>
<!-- Generator: Adobe Illustrator 20.1.0, SVG Export Plug-In . SVG Version: 6.00 Build 0)  -->
<svg version="1.1" id="Capa_1" xmlns="http://www.w3.org/2000/svg" xmlns:xlink="http://www.w3.org/1999/xlink" x="0px" y="0px"
	 viewBox="0 0 430.1 430.1" style="enable-background:new 0 0 430.1 430.1;" xml:space="preserve">
<style type="text/css">
	.st0{fill:none;stroke:#630A10;stroke-width:16;stroke-linejoin:round;stroke-miterlimit:10;}
</style>
<g>
	<path id="LinkedIn" class="st0" d="M409.7,259.6V412h-83.4V269.8c0-35.7-12.1-60.1-42.3-60.1c-23.1,0-36.8,16.4-42.8,32.3
		c-2.2,5.7-2.8,13.6-2.8,21.5V412H155c0,0,1.1-240.8,0-265.7h83.5v37.7c-0.2,0.3-0.4,0.6-0.5,0.9h0.5v-0.9
		c11.1-18.1,30.9-43.9,75.2-43.9C368.5,140,409.7,178,409.7,259.6z M67.6,18.1C39.1,18.1,20.4,38,20.4,64
		c0,25.5,18.1,45.9,46.1,45.9h0.6c29.1,0,47.2-20.4,47.2-45.9C113.8,38,96.2,18.1,67.6,18.1z M25.4,412h83.4V146.2H25.4V412z"/>
</g>
</svg>
